<?xml version="1.0" encoding="UTF-8"?>
<svg width="100mm" height="100mm" version="1.1" viewBox="0 0 100 100" xml:space="preserve" xmlns="http://www.w3.org/2000/svg" xmlns:xlink="http://www.w3.org/1999/xlink">
  <defs>
    <pattern id="pattern14484" patternTransform="matrix(7.0436 7.9449e-8 -1.0136e-7 8.8279 28.11 -13.536)" xlink:href="#Strips1_1" />
    <pattern id="Strips1_1" width="2" height="1" patternTransform="translate(0) scale(10)" patternUnits="userSpaceOnUse">
      <rect y="-.5" width="1" height="2" fill="black" />
    </pattern>
    <linearGradient id="linearGradient2844">
      <stop stop-color="#576157" stop-opacity=".26275" offset="0" />
    </linearGradient>
    <linearGradient id="linearGradient6326" x1="111.5" x2="142.26" y1="124.64" y2="124.64" gradientTransform="rotate(1.1914 215.06 214.88)" gradientUnits="userSpaceOnUse" xlink:href="#linearGradient2844" />
    <linearGradient id="linearGradient6334" x1="111.5" x2="142.26" y1="124.64" y2="124.64" gradientUnits="userSpaceOnUse" xlink:href="#linearGradient2844" />
  </defs>
  <g>
    <g transform="translate(-54.84 -79.697)" fill="#fef5ed" stroke="url(#linearGradient6334)">
      <g transform="matrix(-.7763 -.016145 -.014783 .71082 195 50.689)">
        <g transform="matrix(-.34075 0 0 .37214 199.06 27.57)" stroke="url(#linearGradient6334)">
          <path class="st0" d="m139.71 379.77c-17.97 0-32.6-14.62-32.6-32.6v-16.16c0-17.97 14.62-32.6 32.6-32.6 7.92 0 15.18 2.84 20.84 7.55v-149.26c0-3.25 2.63-5.88 5.88-5.88s5.88 2.63 5.88 5.88v190.47c0 17.98-14.62 32.6-32.6 32.6zm0-69.59c-11.49 0-20.84 9.35-20.84 20.84v16.16c0 11.49 9.35 20.84 20.84 20.84s20.84-9.35 20.84-20.84v-16.16c0-11.49-9.35-20.84-20.84-20.84z" />
          <path class="st0" d="m290.29 309.77c-17.97 0-32.6-14.62-32.6-32.6v-16.16c0-17.97 14.62-32.6 32.6-32.6 7.92 0 15.18 2.84 20.84 7.55v-149.26c0-3.25 2.63-5.88 5.88-5.88s5.88 2.63 5.88 5.88v190.47c-0.01 17.98-14.63 32.6-32.6 32.6zm0-69.59c-11.49 0-20.84 9.35-20.84 20.84v16.16c0 11.49 9.35 20.84 20.84 20.84s20.84-9.35 20.84-20.84v-16.16c-0.01-11.49-9.35-20.84-20.84-20.84z" />
          <path class="st1" d="m166.29 216.53c-1.14 0-2.28-0.32-3.27-0.95-1.78-1.12-2.85-3.08-2.85-5.18v-82.64c0-2.36 1.36-4.52 3.49-5.53l150.59-71.65c1.9-0.9 4.13-0.77 5.9 0.35 1.78 1.12 2.85 3.08 2.85 5.18v82.64c0 2.36-1.36 4.52-3.49 5.53l-150.59 71.65c-0.84 0.4-1.74 0.6-2.63 0.6zm6.12-84.9v69.08l138.34-65.82v-69.08z" />
        </g>
      </g>
      <g transform="matrix(-.77647 0 0 .71097 193.43 48.642)">
        <g transform="matrix(-.34075 0 0 .37214 199.06 27.57)" stroke="url(#linearGradient6326)">
          <path class="st0" d="m136.3 378.17c-17.966-0.37364-32.289-15.295-31.915-33.271l0.33601-16.157c0.37364-17.966 15.295-32.289 33.271-31.915 7.9183 0.16468 15.118 3.155 20.679 7.9817l3.1035-149.23c0.0676-3.2493 2.7517-5.824 6.001-5.7565 3.2493 0.0676 5.824 2.7517 5.7565 6.001l-3.9603 190.43c-0.37385 17.976-15.295 32.289-33.271 31.915zm1.447-69.575c-11.488-0.23891-21.03 8.9147-21.269 20.402l-0.33601 16.157c-0.2389 11.488 8.9147 21.03 20.402 21.269 11.488 0.23891 21.03-8.9147 21.269-20.402l0.33601-16.156c0.2389-11.488-8.9147-21.03-20.402-21.269z" fill="#adc2a9" />
          <path class="st0" d="m288.3 311.31c-17.966-0.37364-32.289-15.295-31.915-33.271l0.336-16.157c0.37364-17.966 15.295-32.289 33.271-31.915 7.9183 0.16468 15.118 3.155 20.679 7.9817l3.1035-149.23c0.0676-3.2493 2.7517-5.824 6.001-5.7565 3.2493 0.06758 5.824 2.7517 5.7565 6.001l-3.9603 190.43c-0.38384 17.976-15.305 32.289-33.271 31.915zm1.4469-69.575c-11.488-0.23891-21.03 8.9147-21.269 20.402l-0.336 16.156c-0.23891 11.488 8.9147 21.03 20.402 21.269 11.488 0.23891 21.03-8.9147 21.269-20.402l0.336-16.157c0.22891-11.488-8.9147-21.03-20.402-21.269z" fill="#adc2a9" />
          <path class="st1" d="m166.27 215.52c-1.1398-0.0237-2.2728-0.36733-3.2495-1.0178-1.7563-1.1568-2.7853-3.1386-2.7417-5.2381l1.7183-82.622c0.0491-2.3595 1.4537-4.4908 3.6042-5.4562l152.05-68.503c1.9183-0.8603 4.1451-0.68396 5.8914 0.4726 1.7563 1.1568 2.7853 3.1386 2.7417 5.2381l-1.7183 82.622c-0.0491 2.3595-1.4537 4.4908-3.6042 5.4562l-152.05 68.503c-0.84813 0.38245-1.7521 0.56369-2.6419 0.54518zm7.884-84.754-1.4363 69.065 139.68-62.929 1.4363-69.065z" />
          <path class="st1" d="m166.27 215.52c-1.1398-0.0237-2.2728-0.36733-3.2495-1.0178-1.7563-1.1568-2.7853-3.1386-2.7417-5.2381l1.7183-82.622c0.0491-2.3595 1.4537-4.4908 3.6042-5.4562l152.05-68.503c1.9183-0.8603 4.1451-0.68396 5.8914 0.4726 1.7563 1.1568 2.7853 3.1386 2.7417 5.2381l-1.7183 82.622c-0.0491 2.3595-1.4537 4.4908-3.6042 5.4562l-152.05 68.503c-0.84813 0.38245-1.7521 0.56369-2.6419 0.54518zm7.884-84.754-1.4363 69.065 139.68-62.929 1.4363-69.065z" fill="#adc2a9" stroke-width="1.0016" />
        </g>
        <path d="m138.92 64.416c0.0368 0.21147 0.0735 0.42294 0.11025 0.63441 0 0.22318-0.0298 0.44847 0 0.66954 0.0605 0.44804 0.22787 0.87819 0.26996 1.3284 0.1358 1.4526 0 2.9185 0 4.3778v5.8029c0 0.07864-0.0822 1.5957 0 1.7699 0.0138 0.02923 0.0633 0 0.095 0 0.13701 0 0.27568 0.02176 0.41104 0 0.44295-0.0712 0.88711-0.149 1.3175-0.27786 0.55962-0.16756 1.0832-0.4493 1.6449-0.60915 1.094-0.31129 2.3675-0.33155 3.4351-0.77882 0.23957-0.10036 0.44897-0.27022 0.69272-0.35939 0.61895-0.22644 1.279-0.31166 1.9128-0.48979 1.1229-0.31561 0.51854-0.24355 1.7147-0.36464 0.0306-0.0031 0.42042 0.05896 0.41179-0.09319-0.0459-0.80879-1.1686-1.6978-1.4906-1.9778-2.4834-2.1594-3.3558-2.3348-6.0658-4.2085-0.72358-0.50028-1.5013-0.95418-2.095-1.6099-0.3799-0.41963-0.46889-1.0412-0.75191-1.5347-0.1784-0.3111-0.63103-0.6128-0.79846-0.93948-0.0462-0.09003 0.0453-0.21461 0-0.30508-0.0344-0.16332-0.24851-0.19065-0.31888-0.32677-0.0147-0.02848 0-0.06446 0-0.09669-0.16508-0.20373-0.33017-0.40747-0.49526-0.6112z" fill="#ffffff" stroke-opacity="0" style="paint-order:markers fill stroke" />
        <path d="m154.33 82.994 4.8783-1.4744" fill="#ffffff" stroke-opacity="0" style="paint-order:markers fill stroke" />
        <rect transform="matrix(-.99998 .0055521 .013221 .99991 0 0)" x="-158.73" y="72.232" width="19.054" height="4.3081" fill="#8c9b8c" stroke-opacity="0" style="paint-order:markers fill stroke" />
        <rect class="virtical" transform="matrix(.023726 .99972 -1 .0030932 0 0)" x="62.993" y="-149.49" width="21.616" height="3.5865" fill="#8c9b8c" stroke="url(#pattern14484)" stroke-linecap="round" stroke-linejoin="bevel" stroke-opacity=".034036" stroke-width=".28124" style="paint-order:markers fill stroke" />
      </g>
    </g>
  </g>
  <style type="text/css">
	.st0{fill:#121331;}
	.st1{fill:#08a88a;}
	.st2{fill:none;stroke:#08a88a;stroke-width:12.25;stroke-miterlimit:14;}
	.st3{fill-opacity:0;}
	.st4{fill:#131432;}
	.st5{fill:none;}
</style>
</svg>
