<?xml version="1.0" encoding="UTF-8"?>
<svg width="100mm" height="100mm" version="1.1" viewBox="0 0 100 100" xml:space="preserve" xmlns="http://www.w3.org/2000/svg" xmlns:xlink="http://www.w3.org/1999/xlink"><defs><linearGradient id="linearGradient2844"><stop stop-color="#5e6d5e" offset="0"/></linearGradient><linearGradient id="linearGradient30897" x1="57.315" x2="153.38" y1="127.01" y2="127.01" gradientUnits="userSpaceOnUse"><stop stop-color="#627362" offset="0"/></linearGradient><linearGradient id="linearGradient2846" x1="111.5" x2="142.26" y1="124.64" y2="124.64" gradientUnits="userSpaceOnUse" xlink:href="#linearGradient2844"/></defs><g><g transform="translate(-54.84 -79.697)"><g fill="#f9f9f9"><path d="m104.2 83.66c-14.713 0.33907-29.147 8.2669-36.951 20.809-6.7357 10.76-8.4358 24.62-4.0938 36.596 4.1464 11.668 13.461 21.379 24.982 25.938 11.088 4.5082 23.973 4.5154 34.981-0.24883 10.568-4.4508 19.396-13.083 23.675-23.764 3.747-9.2064 4.2259-19.748 1.033-29.188-3.6243-10.995-11.819-20.404-22.267-25.415-6.6036-3.2473-13.998-4.9166-21.359-4.7266z" opacity=".75" stroke="url(#linearGradient30897)"/><path d="m93.4 165.09c-18.254-0.27836-34.434-17.564-34.815-39.231-0.38146-21.666 16.109-39.85 34.337-41.034 0 0-56.535 44.492 0.47861 80.264z" fill-opacity=".16634" stroke-opacity="0" style="mix-blend-mode:darken"/></g><g transform="matrix(-.77647 0 0 .71097 214.45 37.403)" fill="#fef5ed" stroke="url(#linearGradient2846)"><g transform="translate(3.2237 .70413)" stroke="url(#linearGradient2846)"><g><path transform="translate(-30.906 -1.4029)" d="m172.94 125.85-30.621 20.536 0.11497-21.921 5e-3 -19.128z" color="#000000" fill="#d9e8d1" stroke="url(#linearGradient2846)" stroke-width=".10169" style="-inkscape-stroke:none"/><path d="m113.14 142.18c8.7259-5.849 17.452-11.698 26.178-17.547-8.7051-5.86-17.41-11.72-26.115-17.58-0.0208 11.709-0.0417 23.418-0.0625 35.127z" color="#000000" stroke="none" style="-inkscape-stroke:none"/><path d="m110.03 102.04c-0.033 15.402-0.0764 30.803-0.12304 46.205 11.73-7.8728 23.46-15.744 35.189-23.617-11.689-7.8586-23.376-15.719-35.064-23.578-6.5e-4 0.33008-1e-3 0.66016-2e-3 0.99024zm31.1 22.588c-9.6628 6.4798-19.326 12.96-28.988 19.439 0.0378-12.953 0.0755-25.906 0.11328-38.859l28.875 19.42z" color="#000000" fill="url(#linearGradient2846)" stroke="none" style="-inkscape-stroke:none"/></g></g></g><g transform="matrix(-.77647 0 0 .71097 185.74 37.403)" fill="#fef5ed" stroke="url(#linearGradient2846)"><g transform="translate(1.9342 .70413)" stroke="url(#linearGradient2846)"><g><path transform="translate(-30.906 -1.4029)" d="m172.94 125.85-30.621 20.536 0.11497-21.921 5e-3 -19.128z" color="#000000" fill="#d9e8d1" stroke="url(#linearGradient2846)" stroke-width=".10169" style="-inkscape-stroke:none"/><path d="m113.14 142.18c8.7259-5.849 17.452-11.698 26.178-17.547-8.7051-5.86-17.41-11.72-26.115-17.58-0.0208 11.709-0.0417 23.418-0.0625 35.127z" color="#000000" stroke="none" style="-inkscape-stroke:none"/><path d="m110.03 102.04c-0.033 15.402-0.0764 30.803-0.12304 46.205 11.73-7.8728 23.46-15.744 35.189-23.617-11.689-7.8586-23.376-15.719-35.064-23.578-6.5e-4 0.33008-1e-3 0.66016-2e-3 0.99024zm31.1 22.588c-9.6628 6.4798-19.326 12.96-28.988 19.439 0.0378-12.953 0.0755-25.906 0.11328-38.859l28.875 19.42z" color="#000000" fill="url(#linearGradient2846)" stroke="none" style="-inkscape-stroke:none"/></g></g></g></g></g></svg>
