<?xml version="1.0" encoding="UTF-8"?>
<svg enable-background="new 0 0 122.88 115.67" version="1.1" viewBox="0 0 122.88 115.67" xml:space="preserve" xmlns="http://www.w3.org/2000/svg">
  <style type="text/css">.st0{fill-rule:evenodd;clip-rule:evenodd;}</style>
  <g transform="matrix(.56752 0 0 .5679 17.05 23.717)">
    <g fill="#adc2a9">
      <path d="m41.375 23.565c15.97-8.76 31.94-17.52 47.9-26.28 1.53-0.84 3.18 1.43 3.18 3.18v108.77c0 1.84-1.74 4.25-3.35 3.35l-47.73-26.92c-0.3-0.17-0.64-0.29-0.64-0.64v-60.82c0.01-0.35 0.34-0.47 0.64-0.64z" />
      <path d="m6.1946 24.655h27.4c0.58 0 1.04 0.47 1.04 1.04v59.28c0 0.57-0.47 1.04-1.04 1.04h-27.41c-3.68 0-6.7-3.01-6.7-6.7v-47.95c0-3.69 3.02-6.71 6.71-6.71z" />
    </g>
    <g transform="translate(.24493)">
      <g fill="#505c50">
        <path class="vol-line" d="m102.9 38.676c-0.15069-0.2304-0.30823-0.45361-0.4658-0.67681l0.0275-0.0216-0.0754-0.1224-0.6028-0.93601 0.8631-0.66961 3.5825-1.8072 0.93844-0.73441 0.6576 1.0224c2.4386 3.7585 4.2881 7.9705 5.4046 12.456 1.0823 4.3273 1.4865 8.9209 1.1097 13.637-0.29454 3.6361-1.0412 7.1209-2.1714 10.397-1.1714 3.3769-2.7606 6.5377-4.6922 9.4177l-0.83571 1.2456-0.93843-1.1592-3.2058-2.3832-0.55486-0.68401 0.47949-0.74161c1.555-2.4192 2.8291-5.0689 3.7744-7.8913 0.91104-2.7216 1.5138-5.6233 1.7604-8.6545 0.3288-4.0681-0.0205-8.0281-0.93844-11.758-0.87682-3.5497-2.281-6.8977-4.1168-9.9362z" stroke-width=".70229" />
        <path class="vol-line" d="m117.51 32.929c-0.1524-0.29498-0.31175-0.58074-0.47109-0.86651l0.0276-0.02765-0.0761-0.15671-0.60968-1.1984 0.87291-0.85729 3.6233-2.3138 0.94912-0.94025 0.66507 1.309c2.4664 4.8119 4.3369 10.204 5.4661 15.947 1.0946 5.5401 1.5034 11.421 1.1223 17.459-0.2979 4.6552-1.053 9.1167-2.1962 13.311-1.1846 4.3233-2.7919 8.3701-4.7456 12.057l-0.84519 1.5947-0.94912-1.4841-3.2423-3.0512-0.56117-0.87573 0.48495-0.94946c1.5726-3.0973 2.8612-6.4896 3.8173-10.103 0.92142-3.4845 1.5311-7.1994 1.7805-11.08 0.33254-5.2082-0.0208-10.278-0.94913-15.053-0.88676-4.5445-2.307-8.831-4.1637-12.721z" stroke-width=".79914" />
        <path class="vol-line" d="m131.69 26.687c-0.16701-0.36035-0.34161-0.70945-0.5162-1.0585l0.0303-0.03378-0.0835-0.19144-0.66803-1.4639 0.95648-1.0473 3.9702-2.8265 1.075 0.0098 0.6937 0.44067c2.7025 5.8783 4.7521 12.466 5.9894 19.482 1.1994 6.7679 1.6473 13.952 1.2298 21.328-0.32642 5.6868-1.1538 11.137-2.4064 16.261-1.2981 5.2814-3.0592 10.225-5.2 14.729l-0.92612 1.9482-1.04-1.813-3.5527-3.7274-0.61488-1.0698 0.53138-1.1599c1.7232-3.7837 3.1352-7.9278 4.1827-12.342 1.0096-4.2567 1.6777-8.7949 1.9509-13.536 0.36437-6.3625-0.0228-12.556-1.04-18.389-0.97167-5.5517-2.5279-10.788-4.5623-15.54z" stroke-width=".92459" />
      </g>
      <rect class="mute" transform="matrix(.69852 .71559 -.73434 .67878 0 0)" x="77.44" y="-114.09" width="5.7071" height="193.03" ry="2.8535" fill="#434f43" stroke-width="2.2093" />
    </g>
  </g>
</svg>
